<?xml version="1.0" encoding="UTF-8" standalone="no"?><!DOCTYPE svg PUBLIC "-//W3C//DTD SVG 1.1//EN" "http://www.w3.org/Graphics/SVG/1.1/DTD/svg11.dtd"><svg width="100%" height="100%" viewBox="0 0 313 374" version="1.1" xmlns="http://www.w3.org/2000/svg" xmlns:xlink="http://www.w3.org/1999/xlink" xml:space="preserve" xmlns:serif="http://www.serif.com/" style="fill-rule:evenodd;clip-rule:evenodd;stroke-linejoin:round;stroke-miterlimit:2;"><path d="M312.117,205.896c1.67,21.245 -0.738,41.587 -7.223,61.027c-14.91,44.73 -50.265,81.675 -95.64,97.313c-9.015,3.11 -17.48,5.332 -25.395,6.667c-53.242,9 -106.477,-10.11 -142.162,-49.65c-11.36,-12.59 -20.06,-25.522 -26.1,-38.797c-5.63,-12.365 -9.61,-23.883 -11.94,-34.553c-3.77,-17.25 -4.625,-35.557 -2.565,-54.922c2.58,-22.815 10.132,-47.303 22.605,-66.218c4.125,-6.255 8.485,-12.342 13.08,-18.262c4.387,-5.648 10.635,-9.023 18.172,-7.523c5.318,1.065 9.705,5.423 11.475,10.575c3.023,8.835 -1.297,13.193 -6.825,20.265c-2.385,3.053 -5.07,6.278 -7.117,9.188c-7.19,10.215 -12.605,21.36 -16.245,33.435c-5.43,18.832 -7.02,40.56 -3.555,59.955c7.5,42.015 33.615,77.857 72.18,96.502c13.177,6.368 28.132,10.365 42.817,10.47c16.5,0.115 33,0.093 49.5,-0.067c4.015,-0.04 7.553,-1.323 10.613,-3.848c8.04,-6.615 7.23,-20.527 -4.05,-23.16c-0.98,-0.23 -3.865,-0.35 -8.655,-0.36c-17.935,-0.055 -35.87,-0.11 -53.805,-0.165c-17.963,-0.052 -36.683,-9.675 -49.68,-21.495c-32.31,-29.377 -43.688,-73.072 -31.695,-115.417c4.18,-14.855 10.882,-28.413 20.107,-40.673c5.1,-6.772 11.355,-14.145 14.513,-21.442c4.68,-10.838 4.612,-21.6 4.56,-33.72c-0.105,-24.375 -0.145,-48.75 -0.12,-73.125c-0,-1.785 -0.038,-4.635 1.62,-6.278c2.182,-2.182 5.182,-2.1 7.515,-0.097c12.51,10.695 25.11,21.27 37.605,31.987c0.845,0.725 1.625,1.433 2.34,2.123c0.22,0.21 0.477,0.267 0.772,0.172c21.475,-6.9 42.96,-6.955 64.455,-0.165c0.12,0.038 0.253,0.006 0.345,-0.082c12.545,-11.595 25.43,-22.825 38.655,-33.69c4.5,-3.698 10.14,-0.6 10.133,4.905c-0.03,24.875 -0.02,49.752 0.03,74.632c0.02,8.38 0.132,13.375 0.337,14.985c0.97,7.54 3.933,14.398 8.888,20.573c3.675,4.585 7.31,9.2 10.905,13.845c17.125,22.13 26.975,47.16 29.55,75.09Zm-151.223,-129.698c0,-6.151 -5.061,-11.212 -11.212,-11.212c-6.151,-0 -11.213,5.061 -11.213,11.212c0,6.151 5.062,11.213 11.213,11.213c6.151,-0 11.212,-5.062 11.212,-11.213Zm62.43,-0.075c0,-6.151 -5.061,-11.212 -11.212,-11.212c-6.151,-0 -11.213,5.061 -11.213,11.212c0,6.151 5.062,11.213 11.213,11.213c6.151,-0 11.212,-5.062 11.212,-11.213Zm-137.1,139.035c1.385,18.555 8.263,34.768 20.633,48.638c7.552,8.467 16.972,15.097 27.9,17.64c2.875,0.665 6.767,1.007 11.677,1.027c46.25,0.18 79.478,0.203 99.683,0.068c1.955,-0.015 3.68,-0.645 5.175,-1.89c5.115,-4.268 1.567,-10.41 -3.555,-12.105c-1.195,-0.4 -3.173,-0.6 -5.933,-0.6c-24.91,0.005 -49.82,0.012 -74.73,0.022c-4.915,0.005 -8.425,-0.365 -10.53,-1.11c-9.81,-3.457 -13.695,-16.155 -7.305,-24.525c3.29,-4.31 7.833,-6.472 13.628,-6.487c29.885,-0.08 59.77,-0.123 89.655,-0.128c4.522,0 12.457,0.053 13.702,-5.61c1.328,-6.045 -4.8,-8.977 -9.982,-8.985c-29.3,-0.025 -58.6,-0.037 -87.9,-0.037c-11.01,-0 -18.473,-8.198 -17.003,-19.275c0.855,-3.44 2.6,-6.243 5.235,-8.408c4.493,-3.705 8.79,-4.155 15.143,-4.17c28.355,-0.045 56.715,-0.042 85.08,0.008c2.82,0.005 5.035,-0.315 6.645,-0.96c4.605,-1.85 7.322,-5.348 8.152,-10.493c2.04,-12.69 -12.93,-29.91 -22.05,-37.59c-15.255,-12.84 -35.04,-22.792 -55.012,-25.185c-2.115,-0.255 -3.563,-0.575 -4.343,-0.96c-2.827,-1.417 -5.43,-5.302 -2.962,-8.272c2.515,-3.025 4.997,-6.213 7.447,-9.563c0.125,-0.171 0.193,-0.377 0.193,-0.589c-0,-0.386 -0.225,-0.74 -0.575,-0.903c-0.945,-0.435 -2.015,-0.63 -3.21,-0.585c-5.228,0.21 -12.315,0.037 -22.02,0.06c-1.17,0.005 -1.96,0.395 -2.37,1.17c-0.133,0.248 -0.116,0.551 0.045,0.78c2.212,3.217 4.882,5.722 7.552,8.512c3.608,3.773 -0.525,8.633 -4.515,9.57c-3.165,0.745 -6.33,1.49 -9.495,2.235c-7.22,1.695 -14.072,4.25 -20.557,7.665c-33.93,17.85 -55.688,52.103 -53.498,91.035Z" style="fill:#171e22;fill-rule:nonzero;"/></svg>